<svg xmlns="http://www.w3.org/2000/svg" viewBox="0 0 512 512">
  <defs>
    <linearGradient id="grad1" x1="0%" y1="0%" x2="100%" y2="100%">
      <stop offset="0%" style="stop-color:#5B9FF0;stop-opacity:1" />
      <stop offset="50%" style="stop-color:#4A90E2;stop-opacity:1" />
      <stop offset="100%" style="stop-color:#8B7CFD;stop-opacity:1" />
    </linearGradient>
  </defs>
  <rect width="512" height="512" rx="64" fill="url(#grad1)" />
  <!-- Flask/Beaker Shape -->
  <path d="M256 96 L256 128 L224 128 L224 160 Q224 176 240 176 L240 208 L272 208 L272 176 Q288 176 288 160 L288 128 L256 128 L256 96" 
        fill="none" stroke="white" stroke-width="8" stroke-linecap="round" stroke-linejoin="round"/>
  <!-- Bubbles/Particles -->
  <circle cx="180" cy="256" r="24" fill="rgba(255,255,255,0.2)" />
  <circle cx="332" cy="220" r="16" fill="rgba(255,255,255,0.15)" />
  <circle cx="296" cy="316" r="20" fill="rgba(255,255,255,0.1)" />
  <!-- DNA Helix -->
  <path d="M256 180 Q240 220 220 240" fill="none" stroke="rgba(255,255,255,0.3)" stroke-width="4"/>
  <path d="M256 180 Q272 220 292 240" fill="none" stroke="rgba(255,255,255,0.3)" stroke-width="4"/>
  <path d="M240 256 Q220 300 220 340" fill="none" stroke="rgba(255,255,255,0.2)" stroke-width="4"/>
  <path d="M272 256 Q292 300 292 340" fill="none" stroke="rgba(255,255,255,0.2)" stroke-width="4"/>
  <!-- Sparkles -->
  <circle cx="196" cy="164" r="6" fill="white" opacity="0.8"/>
  <circle cx="316" cy="196" r="4" fill="white" opacity="0.6"/>
  <circle cx="276" cy="144" r="5" fill="white" opacity="0.7"/>
</svg>
